<svg xmlns="http://www.w3.org/2000/svg" viewBox="0 0 1600 1000" role="img" aria-label="Community placeholder image">
  <defs>
    <linearGradient id="bg" x1="0" y1="0" x2="1" y2="1">
      <stop offset="0%" stop-color="#0b2230"/>
      <stop offset="58%" stop-color="#214f60"/>
      <stop offset="100%" stop-color="#b87a56"/>
    </linearGradient>
  </defs>
  <rect width="1600" height="1000" fill="url(#bg)"/>
  <circle cx="1040" cy="330" r="72" fill="#f4f8fb" fill-opacity="0.12"/>
  <circle cx="1180" cy="330" r="72" fill="#f4f8fb" fill-opacity="0.14"/>
  <circle cx="1320" cy="330" r="72" fill="#f4f8fb" fill-opacity="0.1"/>
  <path d="M930 590c26-70 84-116 144-116s118 46 144 116" fill="#f4f8fb" fill-opacity="0.1"/>
  <path d="M1050 590c26-70 84-116 144-116s118 46 144 116" fill="#f4f8fb" fill-opacity="0.08"/>
  <path d="M0 740C224 692 412 702 616 748C822 796 986 854 1188 840C1362 828 1498 788 1600 756V1000H0V740Z" fill="#08202f" fill-opacity="0.9"/>
  <text x="84" y="126" fill="#f4f8fb" font-family="Sora, Arial, sans-serif" font-size="72" font-weight="700" letter-spacing="10">COMMUNITY</text>
  <text x="86" y="182" fill="#e2eef2" font-family="Outfit, Arial, sans-serif" font-size="26" letter-spacing="6">SURF MANGALORE PLACEHOLDER</text>
</svg>
